<?xml version="1.0" encoding="utf-8"?>
<!-- Generator: Adobe Illustrator 22.1.0, SVG Export Plug-In . SVG Version: 6.00 Build 0)  -->
<svg version="1.1" id="Layer_1" xmlns="http://www.w3.org/2000/svg" xmlns:xlink="http://www.w3.org/1999/xlink" x="0px" y="0px"
	 viewBox="0 0 300 300" style="enable-background:new 0 0 300 300;" xml:space="preserve">
<style type="text/css">
	.st0{fill:#3078F6;}
	.st1{fill:#4570EC;}
	.st2{fill:#566AE4;}
	.st3{fill:#825AD0;}
	.st4{fill:#9852C6;}
	.st5{fill:#B946B7;}
	.st6{fill:#C840B0;}
	.st7{fill:#F24D79;}
	.st8{fill:#F73799;}
	.st9{fill:#F53E8E;}
	.st10{fill:#F44484;}
	.st11{fill:#F15174;}
	.st12{fill:#F15370;}
	.st13{fill:#F05869;}
	.st14{fill:#EF5C63;}
	.st15{fill:#1494CE;}
	.st16{fill:#1D84F8;}
	.st17{fill:#1A8AEA;}
	.st18{fill:#1690D9;}
	.st19{fill:#1198C4;}
	.st20{fill:#0E9DB7;}
	.st21{fill:#08A6A0;}
	.st22{fill:#07AA96;}
</style>
<g>
	<g>
		<path class="st0" d="M34.4,221.8c0.3-0.3,0.6-0.5,0.9-0.8c0.6-0.5,1.2-1,1.8-1.4c2.2-1.6,4.7-2.9,7.3-3.8
			c-2.4-1.8-4.8-3.6-7.1-5.5c-1.7-1.4-3.3-2.8-4.9-4.3c-3.4-3.1-6.8-6.3-10-9.6c2.3,6.8,5.2,13.4,8.6,19.7c0.9,1.7,1.9,3.5,3,5.2
			C34.2,221.4,34.3,221.6,34.4,221.8z"/>
	</g>
	<path class="st0" d="M259.4,205.9c-1.6,1.4-3.3,2.9-4.9,4.3c-9.6,8-20.2,14.9-31.4,20.6c-3.7,1.9-7.5,3.6-11.3,5.2
		c-3.5,1.5-7,2.8-10.6,4c-17.3,5.9-35.9,9.1-55.2,9.1s-37.8-3.2-55.2-9.1c-2.7-0.9-5.4-1.9-8.1-3c0.4,2,0.7,4.1,0.7,6.2
		c0,1.3-0.1,2.5-0.3,3.8c-0.8,6.3-3.6,12-7.8,16.4c1,0.7,2.1,1.3,3.2,1.9c0.3,0.2,0.6,0.4,0.9,0.6c1,0.6,2,1.1,3,1.7
		c4.9,2.7,10,5.1,15.3,7.1c7,2.7,14.2,4.9,21.7,6.3c2.9,0.6,5.8,1,8.7,1.4c5.3,0.7,10.8,1,16.3,1c6.2,0,12.3-0.4,18.3-1.3
		c2.3-0.3,4.5-0.7,6.7-1.1c4-0.8,7.9-1.8,11.8-2.9c13.6-4.1,26.3-10.3,37.7-18.3c1.9-1.4,3.8-2.8,5.7-4.3c4.3-3.4,8.4-7.1,12.2-11
		c0.3-0.3,0.7-0.7,1-1c7.4-7.8,13.8-16.4,19.1-25.9c1.2-2.1,2.3-4.2,3.4-6.4c1.6-3.3,3.1-6.7,4.5-10.2
		C262.9,202.7,261.2,204.3,259.4,205.9z"/>
	<path class="st1" d="M253.1,183.9c-2.8,2-5.6,3.9-8.4,5.7c-8.4,5.4-17.2,10-26.5,14c-2.9,4.4-6.3,8.6-9.9,12.4
		c-2.8,2.9-5.9,5.7-9.1,8.2c-3.4,2.7-7,5.1-10.7,7.2c-13,7.5-28.1,11.8-44.1,11.8c-15.5,0-30-4-42.6-10.9c-1.6-0.9-3.1-1.8-4.7-2.7
		c-2.1-1.3-4.1-2.7-6-4.2c-2.8-2.1-5.4-4.3-7.9-6.6c-5.3-5-10-10.7-13.9-16.9c-7.7-3.5-15.2-7.6-22.2-12.1c-2.9-1.8-5.7-3.8-8.4-5.7
		c-8.1-5.8-15.7-12.3-22.8-19.4c0.8,11,3.1,21.7,6.5,31.8c3.2,3.3,6.5,6.5,10,9.6c1.6,1.4,3.3,2.9,4.9,4.3c2.3,1.9,4.7,3.8,7.1,5.5
		c3-1.1,6.3-1.7,9.7-1.7c7.7,0,14.7,3,19.9,7.8c0.9,0.8,1.7,1.6,2.4,2.5c2.4,2.8,4.2,6.1,5.4,9.6c0.2,0.5,0.3,1.1,0.5,1.6
		c0.1,0.5,0.2,0.9,0.3,1.4c2.7,1.1,5.3,2.1,8.1,3c17.3,5.9,35.9,9.1,55.2,9.1s37.8-3.2,55.2-9.1c3.6-1.2,7.1-2.6,10.6-4
		c3.8-1.6,7.6-3.4,11.3-5.2c11.3-5.7,21.8-12.6,31.4-20.6c1.7-1.4,3.3-2.8,4.9-4.3c1.8-1.6,3.6-3.2,5.3-4.9
		c4.1-10.5,6.8-21.7,8-33.3C266.5,173.6,260,179,253.1,183.9z"/>
	<path class="st2" d="M273.1,147.2c-0.1-1.5-0.2-3-0.3-4.5c-9,8.3-18.9,15.6-29.4,22c-3.8,2.3-7.8,4.5-11.8,6.5
		c0,0.2-0.1,0.4-0.1,0.6c-2.3,11.6-6.8,22.4-13.2,31.9c9.2-4,18.1-8.7,26.5-14c2.9-1.8,5.7-3.8,8.4-5.7c6.9-4.9,13.4-10.4,19.5-16.2
		c0.4-4.3,0.7-8.7,0.7-13.1C273.3,152.1,273.2,149.7,273.1,147.2z"/>
	<path class="st2" d="M58,174.5c-0.6-2.4-1-4.9-1.4-7.4c-2.4-1.3-4.7-2.7-7-4.2c-11.9-7.5-23-16.3-32.9-26.2
		c-0.5,3.9-0.9,7.9-1.1,12c-0.1,2-0.1,3.9-0.1,5.9c0,3.4,0.1,6.7,0.4,10c7,7.1,14.7,13.5,22.8,19.4c2.8,2,5.6,3.9,8.4,5.7
		c7.1,4.5,14.5,8.6,22.2,12.1C64.1,193.5,60.3,184.3,58,174.5z"/>
	<path class="st3" d="M267,114.7c-10.9,8.8-22.9,16.3-35.6,22.5c0.2,0.9,0.4,1.8,0.5,2.7c0.6,3.6,1,7.2,1.2,11
		c0.1,1.2,0.1,2.5,0.1,3.8c0,5.7-0.6,11.2-1.6,16.6c4-2,8-4.2,11.8-6.5c10.5-6.3,20.4-13.7,29.4-22C271.8,133,269.9,123.6,267,114.7
		z"/>
	<path class="st3" d="M56.8,140.9c0.4-2.3,0.8-4.6,1.4-6.9c-12.5-6.7-24.1-14.7-34.8-23.8c-3.1,8.5-5.4,17.3-6.6,26.5
		c9.9,9.9,20.9,18.7,32.9,26.2c2.3,1.4,4.6,2.8,7,4.2c-0.6-4.1-0.9-8.2-0.9-12.5c0,0,0,0,0-0.1C55.8,149.9,56.1,145.3,56.8,140.9z"
		/>
	<path class="st4" d="M231.3,137.2c12.7-6.2,24.7-13.8,35.6-22.5c-0.7-2.2-1.5-4.4-2.3-6.5c-0.3-0.8-0.6-1.5-0.9-2.3
		c-0.6-1.4-1.1-2.7-1.7-4c-5.9,2.8-12.5,4.4-19.5,4.4c-8.2,0-15.9-2.2-22.6-6c-2-1.1-3.9-2.4-5.7-3.9c-0.8,0.3-1.6,0.5-2.4,0.8
		C221.5,108.4,228.3,122.1,231.3,137.2z"/>
	<path class="st4" d="M41.3,77.3c-7.5,9.9-13.5,21-17.9,32.9c10.6,9.2,22.3,17.2,34.8,23.8c3.5-14.7,10.6-27.9,20.4-38.7
		C65.5,90.5,53,84.5,41.3,77.3z"/>
	<path class="st5" d="M212,94.4c-9.2-8.3-15-20.3-15-33.7c0-2.8,0.3-5.5,0.7-8.2c-16,3.8-32.7,5.9-49.9,5.9
		c-25.5,0-49.9-4.5-72.5-12.6c-7.5,4.8-14.5,10.3-20.9,16.5c-4.8,4.7-9.2,9.7-13.2,15c11.7,7.2,24.2,13.2,37.3,18
		c1.4-1.6,2.9-3.1,4.4-4.5c0.3-0.3,0.7-0.6,1-1c15.8-14.8,37.1-23.8,60.4-23.8c20.3,0,39,6.8,53.9,18.3c3.8,2.9,7.3,6.1,10.6,9.5
		c1,1.1,2,2.2,3,3.3c0.8-0.3,1.6-0.5,2.4-0.8C213.5,95.7,212.8,95.1,212,94.4z"/>
	<path class="st6" d="M201.7,40.7c0.2-0.4,0.4-0.9,0.6-1.3c-17.4-8.8-37.1-13.7-57.9-13.7c-25.4,0-49.1,7.4-69,20
		c22.6,8.2,47.1,12.6,72.5,12.6c17.2,0,33.9-2,49.9-5.9c0.8-4.1,2-8,3.8-11.7C201.6,40.8,201.7,40.8,201.7,40.7z"/>
</g>
<g>
	<circle class="st7" cx="242.6" cy="60.1" r="37.9"/>
	<path class="st8" d="M235.1,22.8c-7.8,1.6-15.2,5.6-21,12s-8.8,14.3-9.4,22.2c-0.3,4.6,0.1,9.2,1.4,13.6c2.8-10.4,8-20.4,15.6-29.1
		c7.7-8.6,16.9-15,27-19C244.2,21.9,239.6,21.9,235.1,22.8z"/>
	<path class="st9" d="M248.7,22.6c-10,4-19.3,10.4-27,19c-7.7,8.6-12.9,18.6-15.6,29.1c1.3,4.3,3.4,8.5,6.2,12.2
		c1.7-12.7,7.1-25,16.2-35.3s20.7-17.1,33.1-20.3C257.6,24.9,253.2,23.4,248.7,22.6z"/>
	<path class="st10" d="M261.6,27.3c-12.4,3.2-24,10.1-33.1,20.3s-14.5,22.6-16.2,35.3c1.5,1.9,3.1,3.7,5,5.4
		c0.9,0.8,1.9,1.6,2.8,2.3c1.1-13.1,6.3-25.9,15.7-36.5s21.5-17.3,34.3-20c-0.8-0.9-1.7-1.7-2.6-2.5C265.7,30,263.7,28.5,261.6,27.3
		z"/>
	<path class="st7" d="M235.8,54.1c-9.4,10.6-14.6,23.4-15.7,36.5c2.3,1.7,4.8,3.1,7.4,4.2c1-12.5,5.9-24.7,14.9-34.8
		s20.5-16.4,32.8-19c-1.4-2.4-3.1-4.7-5.1-6.8C257.3,36.9,245.2,43.5,235.8,54.1z"/>
	<path class="st11" d="M242.4,60c-8.9,10.1-13.9,22.3-14.9,34.8c2.4,1,4.9,1.8,7.5,2.3c1.2-11.3,5.8-22.3,13.8-31.4
		s18.5-15,29.5-17.5c-0.8-2.5-1.9-4.9-3.2-7.1C263,43.5,251.4,49.9,242.4,60z"/>
	<path class="st12" d="M248.9,65.7c-8.1,9.1-12.7,20.2-13.8,31.4c4.1,0.8,8.3,0.9,12.4,0.4c1.9-8.2,5.8-16,11.8-22.7
		c6-6.7,13.3-11.5,21.1-14.4c0-4.1-0.6-8.3-1.9-12.2C267.4,50.7,257,56.5,248.9,65.7z"/>
	<g>
		<g>
			<path class="st13" d="M279.3,68.6c0.6-2.7,1-5.5,1-8.2c-7.9,2.9-15.2,7.7-21.1,14.4c-6,6.7-9.9,14.5-11.8,22.7c2.7-0.4,5.4-1,8-2
				c2.2-5.6,5.4-10.9,9.6-15.6C269.2,75.2,274,71.4,279.3,68.6z"/>
		</g>
		<g>
			<path class="st14" d="M279.3,68.6c-5.3,2.8-10.1,6.6-14.4,11.4c-4.2,4.7-7.4,10-9.6,15.6c5.7-2.1,11-5.6,15.4-10.5
				C275.1,80.2,277.9,74.5,279.3,68.6z"/>
		</g>
	</g>
</g>
<g>
	<circle class="st15" cx="54.4" cy="243.6" r="24.8"/>
	<path class="st16" d="M78.8,238.7c-1-5.1-3.7-10-7.9-13.7c-4.2-3.7-9.3-5.8-14.6-6.2c-3-0.2-6,0.1-8.9,0.9
		c6.8,1.8,13.4,5.2,19,10.2c5.7,5,9.8,11.1,12.4,17.7C79.4,244.7,79.4,241.6,78.8,238.7z"/>
	<path class="st17" d="M78.9,247.6c-2.6-6.6-6.8-12.6-12.4-17.7c-5.7-5-12.2-8.4-19-10.2c-2.8,0.8-5.6,2.2-8,4.1
		c8.3,1.1,16.3,4.7,23.1,10.6c6.7,6,11.2,13.5,13.3,21.6C77.4,253.4,78.4,250.6,78.9,247.6z"/>
	<path class="st18" d="M75.9,256.1c-2.1-8.1-6.6-15.7-13.3-21.6c-6.7-6-14.8-9.5-23.1-10.6c-1.3,1-2.4,2-3.5,3.3
		c-0.5,0.6-1,1.2-1.5,1.9c8.5,0.7,16.9,4.1,23.9,10.3c6.9,6.1,11.3,14.1,13.1,22.5c0.6-0.5,1.1-1.1,1.7-1.7
		C74.1,258.7,75.1,257.4,75.9,256.1z"/>
	<path class="st15" d="M58.3,239.2c-6.9-6.1-15.3-9.5-23.9-10.3c-1.1,1.5-2,3.2-2.8,4.8c8.2,0.7,16.2,3.9,22.8,9.7
		c6.6,5.9,10.8,13.4,12.4,21.5c1.6-0.9,3.1-2,4.5-3.3C69.6,253.3,65.2,245.3,58.3,239.2z"/>
	<path class="st19" d="M54.5,243.5c-6.6-5.9-14.6-9.1-22.8-9.7c-0.7,1.6-1.2,3.2-1.5,4.9c7.4,0.8,14.6,3.8,20.6,9.1
		c6,5.3,9.8,12.1,11.5,19.3c1.6-0.5,3.2-1.2,4.7-2.1C65.3,256.9,61.1,249.4,54.5,243.5z"/>
	<path class="st20" d="M50.8,247.7c-6-5.3-13.2-8.3-20.6-9.1c-0.5,2.7-0.6,5.4-0.3,8.1c5.3,1.2,10.5,3.8,14.9,7.7
		c4.4,3.9,7.6,8.7,9.4,13.8c2.7,0,5.4-0.4,8-1.2C60.6,259.8,56.8,253,50.8,247.7z"/>
	<g>
		<g>
			<path class="st21" d="M48.9,267.6c1.8,0.4,3.6,0.6,5.4,0.6c-1.9-5.2-5-9.9-9.4-13.8c-4.4-3.9-9.5-6.5-14.9-7.7
				c0.2,1.8,0.7,3.5,1.3,5.3c3.6,1.4,7.1,3.5,10.2,6.3C44.5,261,47,264.2,48.9,267.6z"/>
		</g>
		<g>
			<path class="st22" d="M48.9,267.6c-1.9-3.5-4.3-6.6-7.4-9.4c-3.1-2.8-6.6-4.8-10.2-6.3c1.4,3.8,3.6,7.2,6.8,10.1
				C41.3,264.9,45,266.7,48.9,267.6z"/>
		</g>
	</g>
</g>
</svg>
